<?xml version="1.0" standalone="no"?>
<!DOCTYPE svg PUBLIC "-//W3C//DTD SVG 20010904//EN"
 "http://www.w3.org/TR/2001/REC-SVG-20010904/DTD/svg10.dtd">
<svg version="1.0" xmlns="http://www.w3.org/2000/svg"
 width="300.000000pt" height="300.000000pt" viewBox="0 0 300.000000 300.000000"
 preserveAspectRatio="xMidYMid meet">
<metadata>
Created by potrace 1.10, written by Peter Selinger 2001-2011
</metadata>
<g transform="translate(0.000000,300.000000) scale(0.100000,-0.100000)"
fill="#000000" stroke="none">
<path d="M1230 2420 c-27 -27 -25 -62 3 -88 22 -21 32 -22 219 -22 108 0 203
-3 212 -6 14 -6 16 -64 16 -556 0 -435 -3 -549 -12 -546 -7 2 -196 260 -420
574 -224 313 -419 579 -433 592 -34 29 -51 28 -86 -7 l-29 -29 0 -692 c0 -587
2 -695 15 -719 25 -49 72 -55 104 -15 21 26 21 35 21 601 0 455 3 574 13 571
6 -3 195 -261 419 -574 223 -313 419 -581 434 -596 33 -34 63 -36 92 -5 l22
23 0 686 c0 616 2 686 16 692 9 3 100 6 204 6 104 0 196 3 205 6 8 4 23 20 31
37 15 28 15 32 -4 56 l-19 26 -501 3 c-491 2 -502 2 -522 -18z m1020 -42 l0
-28 -235 0 -235 0 2 -715 3 -715 -25 0 c-22 1 -90 91 -492 656 l-468 655 0
-655 0 -656 -30 0 -30 0 0 716 0 715 27 -3 c28 -3 11 20 647 -873 149 -209
279 -392 288 -405 16 -24 17 11 17 628 l1 652 -240 0 -240 0 0 23 c0 13 2 26
4 28 2 2 230 4 505 4 l501 0 0 -27z"/>
<path d="M1160 815 c-8 -10 -17 -12 -29 -6 -10 6 -23 6 -33 0 -11 -6 -19 -6
-23 1 -8 13 -61 13 -86 -1 -15 -7 -24 -7 -35 2 -11 9 -17 9 -29 -1 -8 -6 -18
-9 -23 -6 -11 7 -26 -79 -17 -94 3 -5 1 -10 -4 -10 -6 0 -24 18 -40 41 l-30
40 -4 -43 c-3 -38 -4 -36 -5 15 -1 31 0 57 2 57 2 0 18 -18 34 -41 l30 -40 3
43 4 43 -42 0 c-51 0 -57 -5 -55 -51 2 -62 11 -77 39 -69 14 3 31 1 38 -5 10
-8 19 -8 34 0 11 6 31 8 45 4 13 -3 27 -1 31 6 5 8 11 8 21 -1 18 -15 72 -20
80 -8 3 5 -1 9 -9 9 -8 0 -22 10 -31 23 l-17 22 5 -22 c2 -13 0 -23 -5 -23 -5
0 -9 25 -9 56 0 32 4 53 10 49 5 -3 6 -13 3 -23 -5 -12 1 -11 20 7 15 14 30
21 33 18 4 -4 -5 -16 -19 -27 -25 -20 -26 -22 -11 -45 16 -25 76 -51 94 -40 5
3 10 24 10 46 0 53 23 51 36 -3 11 -52 40 -65 49 -21 3 15 9 40 14 54 7 23 6
26 -10 22 -15 -4 -19 -15 -19 -49 0 -25 -5 -44 -11 -44 -7 0 -10 17 -7 45 3
38 0 45 -14 45 -10 0 -18 5 -18 10 0 6 18 10 41 10 24 0 38 4 34 10 -9 15 -61
12 -75 -5z m-210 -60 c0 -30 -4 -55 -10 -55 -5 0 -10 25 -10 55 0 30 5 55 10
55 6 0 10 -25 10 -55z m172 -12 c2 -24 0 -43 -4 -43 -5 0 -7 26 -7 58 1 61 6
55 11 -15z m-32 8 c0 -11 -4 -22 -9 -25 -11 -7 -23 22 -15 35 9 16 24 10 24
-10z"/>
<path d="M1471 816 c-9 -11 -9 -20 -2 -35 6 -11 11 -31 11 -44 0 -27 23 -52
39 -43 6 4 13 22 17 41 9 50 18 50 32 -1 12 -43 28 -54 49 -33 8 8 17 7 32 -3
19 -11 24 -11 34 3 12 15 14 15 36 -2 31 -25 76 -24 102 2 19 19 21 20 33 3
15 -20 117 -24 140 -5 9 8 16 8 21 2 3 -6 33 -9 70 -6 36 2 67 0 70 -6 12 -18
74 -10 85 11 11 21 3 97 -13 118 -28 35 -96 -12 -84 -58 8 -32 -6 -23 -28 18
-26 49 -54 53 -79 10 l-20 -32 -13 32 c-14 34 -31 40 -63 20 -16 -10 -23 -10
-37 5 -16 16 -18 16 -39 -4 l-23 -21 -22 21 c-29 27 -59 27 -93 0 -24 -19 -29
-20 -44 -6 -12 11 -22 13 -35 6 -9 -6 -22 -7 -27 -4 -6 3 -10 2 -10 -4 0 -5
-3 -16 -6 -25 -5 -12 1 -16 24 -16 26 0 31 4 35 28 2 15 4 0 4 -33 0 -33 -2
-48 -4 -32 -4 22 -9 27 -34 27 -26 0 -29 -3 -23 -25 4 -16 2 -25 -6 -25 -8 0
-11 18 -8 59 3 52 1 58 -13 50 -12 -6 -21 -4 -29 6 -16 19 -64 19 -79 1z m79
-16 c0 -5 -7 -10 -15 -10 -11 0 -15 -12 -15 -45 0 -25 -4 -45 -10 -45 -5 0
-10 20 -10 45 0 33 -4 45 -15 45 -8 0 -15 5 -15 10 0 6 18 10 40 10 22 0 40
-4 40 -10z m258 -2 c7 -7 12 -26 12 -43 0 -38 -16 -55 -50 -55 -33 0 -50 17
-50 49 0 48 57 80 88 49z m99 -34 l20 -46 18 46 c10 25 22 46 26 46 5 0 8 -26
8 -57 -2 -54 -2 -55 -8 -18 l-7 40 -14 -37 c-16 -44 -26 -47 -42 -13 -15 33
-26 32 -31 -2 -2 -16 -5 -2 -6 30 0 31 3 57 8 57 5 0 17 -21 28 -46z m191 1
c5 -16 13 -38 17 -47 4 -11 3 -18 -4 -18 -6 0 -11 7 -11 15 0 21 -47 19 -59
-2 -21 -38 -17 -5 6 46 25 56 33 57 51 6z m129 20 c2 -11 0 -14 -3 -7 -8 17
-44 15 -44 -3 0 -8 6 -15 14 -15 8 0 22 -8 31 -17 16 -16 16 -18 -5 -35 -25
-20 -60 -9 -60 19 0 15 2 14 14 -2 8 -11 19 -16 30 -12 25 10 19 24 -14 36
-16 5 -30 16 -30 23 0 39 63 50 67 13z"/>
<path d="M1747 783 c-11 -10 -8 -61 3 -68 6 -3 19 -3 30 0 15 5 20 15 20 41 0
29 -3 34 -23 34 -13 0 -27 -3 -30 -7z"/>
<path d="M1280 774 c-22 -50 -24 -64 -11 -64 4 0 18 23 30 52 22 54 31 54 49
3 5 -16 13 -38 17 -47 4 -11 3 -18 -4 -18 -6 0 -11 7 -11 15 0 22 -42 19 -62
-4 -16 -19 -15 -19 35 -17 l52 2 -1 37 c-1 45 -28 87 -55 87 -14 0 -25 -13
-39 -46z"/>
</g>
</svg>
